<svg xmlns="http://www.w3.org/2000/svg" viewBox="0 0 1600 900">
  <defs>
    <radialGradient id="bg" cx="50%" cy="38%" r="70%">
      <stop offset="0%" stop-color="#ffffff"/>
      <stop offset="46%" stop-color="#eaf4ff"/>
      <stop offset="100%" stop-color="#b9d7fb"/>
    </radialGradient>
    <linearGradient id="blue" x1="0" x2="1">
      <stop offset="0" stop-color="#55b8ff"/>
      <stop offset="1" stop-color="#075ee8"/>
    </linearGradient>
    <linearGradient id="cyan" x1="0" x2="1">
      <stop offset="0" stop-color="#2df5dd"/>
      <stop offset="1" stop-color="#0b94ff"/>
    </linearGradient>
    <linearGradient id="gold" x1="0" x2="1">
      <stop offset="0" stop-color="#ffe86d"/>
      <stop offset="1" stop-color="#f5a600"/>
    </linearGradient>
    <filter id="glow" x="-60%" y="-60%" width="220%" height="220%">
      <feGaussianBlur stdDeviation="8" result="blur"/>
      <feMerge>
        <feMergeNode in="blur"/>
        <feMergeNode in="SourceGraphic"/>
      </feMerge>
    </filter>
    <filter id="softShadow" x="-40%" y="-40%" width="180%" height="180%">
      <feDropShadow dx="0" dy="18" stdDeviation="18" flood-color="#2b79d4" flood-opacity=".22"/>
    </filter>
    <style>
      .title{font:700 28px "Microsoft YaHei",Arial,sans-serif;fill:#082b70}
      .label{font:700 21px "Microsoft YaHei",Arial,sans-serif;fill:#123d89}
      .small{font:700 18px "Microsoft YaHei",Arial,sans-serif;fill:#0a2b67}
      .orbit{fill:none;stroke:#77aef1;stroke-width:1.2;opacity:.42}
      .dash{fill:none;stroke:#64a7f7;stroke-width:1.4;stroke-dasharray:5 8;opacity:.48}
      .flow{fill:none;stroke-linecap:round;filter:url(#glow)}
      .platform{fill:#f7fbff;stroke:#7ab8ff;stroke-width:2;filter:url(#softShadow)}
      .ring{fill:none;stroke-width:12;stroke-linecap:round;filter:url(#glow)}
      .city{fill:none;stroke:#91bdf0;stroke-width:1.4;opacity:.22}
    </style>
  </defs>

  <rect width="1600" height="900" fill="url(#bg)"/>
  <g opacity=".42">
    <path class="city" d="M40 785h70v-95h36v95h48v-155h62v155h52v-86h45v86h68"/>
    <path class="city" d="M1205 785h66v-120h44v120h58v-188h66v188h47v-82h42v82h42"/>
    <path class="city" d="M78 700v-142m0 0 34-28v170m1190-38V520m0 0 42-36v178"/>
  </g>

  <g transform="translate(800 460)">
    <ellipse class="orbit" rx="660" ry="360"/>
    <ellipse class="orbit" rx="550" ry="300"/>
    <ellipse class="orbit" rx="445" ry="246"/>
    <ellipse class="orbit" rx="330" ry="182"/>
    <ellipse class="dash" rx="640" ry="348"/>
  </g>

  <g>
    <path class="flow" d="M800 455 C660 410 510 395 345 405" stroke="url(#cyan)" stroke-width="9"/>
    <path class="flow" d="M800 455 C940 410 1080 390 1255 405" stroke="url(#gold)" stroke-width="9"/>
    <path class="flow" d="M800 455 C715 520 595 600 430 676" stroke="url(#cyan)" stroke-width="8"/>
    <path class="flow" d="M800 455 C900 535 1025 610 1194 682" stroke="url(#gold)" stroke-width="8"/>
    <path class="flow" d="M800 455 C795 345 802 260 802 154" stroke="url(#blue)" stroke-width="7"/>
    <path class="flow" d="M345 405 C520 470 635 485 800 455" stroke="#22b6ff" stroke-width="4" opacity=".75"/>
    <path class="flow" d="M1255 405 C1085 470 970 480 800 455" stroke="#22b6ff" stroke-width="4" opacity=".75"/>
  </g>

  <g transform="translate(800 455)" filter="url(#softShadow)">
    <ellipse class="platform" rx="168" ry="54"/>
    <ellipse fill="#dcefff" stroke="#7ab8ff" stroke-width="2" rx="130" ry="41"/>
    <ellipse fill="none" stroke="url(#blue)" stroke-width="10" rx="158" ry="50" opacity=".8"/>
    <circle r="78" fill="#2b8cff" opacity=".18"/>
    <circle r="70" fill="url(#blue)" opacity=".92"/>
    <path d="M735 455c48-42 96-47 137-20 31 21 39 54 22 86-54 16-104 8-154-23-13-15-16-29-5-43z" fill="#e5f7ff" opacity=".35"/>
    <path d="M755 417c38 28 68 80 58 111M801 386c-16 34-20 91-3 142M854 406c-44 20-78 54-100 102" fill="none" stroke="#dff8ff" stroke-width="2" opacity=".55"/>
    <path d="M730 455h140M744 421h105M744 490h118" stroke="#dff8ff" stroke-width="2" opacity=".55"/>
    <text x="0" y="118" text-anchor="middle" class="label">全域调度核心</text>
  </g>

  <g transform="translate(800 155)">
    <text x="0" y="-80" text-anchor="middle" class="title">算力资源</text>
    <ellipse class="platform" rx="112" ry="38"/>
    <ellipse fill="none" stroke="url(#blue)" stroke-width="9" rx="104" ry="34"/>
    <g transform="translate(-40 -72)">
      <rect width="38" height="86" rx="3" fill="url(#blue)" stroke="#fff" stroke-width="2"/>
      <rect x="44" y="-18" width="38" height="104" rx="3" fill="url(#blue)" stroke="#fff" stroke-width="2"/>
      <rect x="88" y="-6" width="38" height="92" rx="3" fill="url(#blue)" stroke="#fff" stroke-width="2"/>
      <g stroke="#bde7ff" stroke-width="3"><path d="M10 20h18M10 34h18M10 48h18M54 16h18M54 30h18M54 44h18M98 24h18M98 38h18M98 52h18"/></g>
    </g>
    <text x="0" y="56" text-anchor="middle" class="small">负载 82.4%</text>
  </g>

  <g transform="translate(345 405)">
    <text x="0" y="-100" text-anchor="middle" class="title">数据资源</text>
    <ellipse class="platform" rx="112" ry="38"/>
    <ellipse fill="none" stroke="url(#cyan)" stroke-width="9" rx="104" ry="34"/>
    <g transform="translate(-43 -82)">
      <ellipse cx="20" cy="18" rx="34" ry="14" fill="#dbf6ff" stroke="#0f75e6" stroke-width="3"/>
      <rect x="-14" y="18" width="68" height="64" fill="url(#blue)"/>
      <ellipse cx="20" cy="82" rx="34" ry="14" fill="#0b71e5" stroke="#95ddff" stroke-width="3"/>
      <ellipse cx="84" cy="28" rx="28" ry="12" fill="#dbf6ff" stroke="#0f75e6" stroke-width="3"/>
      <rect x="56" y="28" width="56" height="52" fill="url(#blue)"/>
      <ellipse cx="84" cy="80" rx="28" ry="12" fill="#0b71e5" stroke="#95ddff" stroke-width="3"/>
    </g>
    <text x="0" y="56" text-anchor="middle" class="small">负载 68.7%</text>
  </g>

  <g transform="translate(1255 405)">
    <text x="0" y="-100" text-anchor="middle" class="title">模型资源</text>
    <ellipse class="platform" rx="112" ry="38"/>
    <ellipse fill="none" stroke="url(#gold)" stroke-width="9" rx="104" ry="34"/>
    <g transform="translate(-48 -82)">
      <path d="M48 0 96 26v58l-48 28L0 84V26z" fill="url(#blue)" stroke="#fff" stroke-width="3"/>
      <path d="M0 26 48 54 96 26M48 54v58" fill="none" stroke="#9ee0ff" stroke-width="3"/>
      <text x="48" y="66" text-anchor="middle" font-size="34" font-family="Arial" font-weight="700" fill="#eafaff">AI</text>
    </g>
    <text x="0" y="56" text-anchor="middle" class="small">负载 74.3%</text>
  </g>

  <g transform="translate(430 676)">
    <text x="0" y="-100" text-anchor="middle" class="title">SCP服务与工具</text>
    <ellipse class="platform" rx="112" ry="38"/>
    <ellipse fill="none" stroke="url(#cyan)" stroke-width="9" rx="104" ry="34"/>
    <g transform="translate(-48 -78)">
      <path d="M48 0 96 26v58l-48 28L0 84V26z" fill="url(#blue)" stroke="#fff" stroke-width="3"/>
      <path d="M27 29l42 50M69 29 27 79M48 12v94" stroke="#d8f8ff" stroke-width="7" stroke-linecap="round"/>
    </g>
    <text x="0" y="56" text-anchor="middle" class="small">负载 61.2%</text>
  </g>

  <g transform="translate(1194 682)">
    <text x="0" y="-100" text-anchor="middle" class="title">实验室与仪器</text>
    <ellipse class="platform" rx="112" ry="38"/>
    <ellipse fill="none" stroke="url(#gold)" stroke-width="9" rx="104" ry="34"/>
    <g transform="translate(-42 -82)" stroke="#1a5aa8" stroke-width="3">
      <rect x="10" y="86" width="84" height="12" rx="3" fill="#dfefff"/>
      <rect x="26" y="36" width="18" height="52" fill="#f5fbff"/>
      <path d="M35 36c26-22 48-9 50 15 2 24-17 40-43 36" fill="none"/>
      <circle cx="82" cy="54" r="12" fill="#dff4ff"/>
      <circle cx="48" cy="94" r="12" fill="#2f8cff"/>
    </g>
    <text x="0" y="56" text-anchor="middle" class="small">负载 76.9%</text>
  </g>

  <g class="small" opacity=".85">
    <text x="515" y="286" transform="rotate(-35 515 286)">SCP检索</text>
    <text x="746" y="315">标准文档</text>
    <text x="880" y="318" transform="rotate(18 880 318)">图像数据</text>
    <text x="636" y="580" transform="rotate(24 636 580)">GPU集群</text>
    <text x="765" y="622">CPU队列</text>
    <text x="905" y="612" transform="rotate(-22 905 612)">高性能计算</text>
    <text x="760" y="742">SCP调用</text>
  </g>
</svg>
